Coordinates
version=1
nRows=14
nColumns=33
inDegrees=yes

Units are S.I. units (second, meters, Newtons, ...)
Angles are in degrees.

endheader
time	ground_thorax_rot_x	ground_thorax_rot_y	ground_thorax_rot_z	ground_thorax_tx	ground_thorax_ty	ground_thorax_tz	clav_prot_r	clav_elev_r	scapula_abduction_r	scapula_elevation_r	scapula_upward_rot_r	scapula_winging_r	shoulder_elv_r	plane_of_elev_r	axial_rot_r	elbow_flexion_r	pro_sup_r	wrist_flex_r	wrist_dev_r	clav_prot_l	clav_elev_l	scapula_abduction_l	scapula_elevation_l	scapula_upward_rot_l	scapula_winging_l	shoulder_elv_l	plane_of_elev_l	axial_rot_l	elbow_flexion_l	pro_sup_l	wrist_flex_l	wrist_dev_l
      2.36000000	     -4.78299242	      7.86461418	     11.52078856	     -0.10675270	      1.02701912	      0.01117682	     17.62165429	    -15.93033025	     41.98942403	    -15.27778989	     21.31125402	    -10.23877429	      2.60952486	    -54.32655514	    121.75517082	    -34.38155586	   -139.01887671	      1.22030949	      1.74846477	     22.96327374	     -8.09701110	    -34.50253437	     -7.44232111	    -22.49649054	     11.49107129	     57.18237948	      0.95532211	     10.13715665	     21.81954788	     12.52566799	     23.30441565	     -3.14600145
      2.37000000	     -4.53231010	      8.06487571	     10.95377988	     -0.10562340	      1.02792059	      0.01124700	     17.27999087	    -15.41223086	     42.37991828	    -15.19477329	     22.63848141	    -10.55840833	      2.11270282	    -54.47773490	    121.46630009	    -33.43666230	   -139.87913357	      2.82893350	      0.97917599	     23.18867005	     -9.09487574	    -34.78649956	     -6.65331807	    -22.66469808	     11.44115159	     57.93874801	      1.68305560	     10.56486873	     20.21823462	     12.98121187	     21.96061006	     -3.70426603
      2.38000000	     -4.60938376	      7.94097362	     11.21315438	     -0.10506239	      1.02822459	      0.01106965	     17.41356254	    -15.41217807	     42.60758831	    -15.19747506	     22.67355782	    -10.66680075	      1.90737804	    -54.38538955	    121.41428787	    -32.92969454	   -140.03068705	      2.87109036	      0.96021923	     23.25975624	     -9.41822447	    -34.88866652	     -6.30268529	    -22.51382370	     11.44014558	     57.83324560	      1.87740174	     10.73045672	     18.82933754	     13.18516022	     21.78676736	     -3.51666933
      2.39000000	     -4.50005481	      7.79904315	     10.81429487	     -0.10445019	      1.02798829	      0.01091260	     17.55421908	    -14.77829025	     43.51261222	    -14.89008208	     23.64090894	    -11.38938356	      1.62627515	    -54.39823735	    121.47873508	    -32.37146539	   -140.71193541	      3.35037212	      0.92439690	     23.50021397	     -9.52737827	    -35.28414410	     -6.16421375	    -22.44576452	     11.65382030	     57.84669832	      2.89293545	     11.94514315	     17.34635492	     13.73024406	     20.52576200	     -3.70082994
      2.40000000	     -4.51867967	      7.66660731	     10.87908261	     -0.10396306	      1.02830464	      0.01082622	     17.71088841	    -14.70481221	     43.74218298	    -14.81353924	     23.61846570	    -11.55917093	      1.54738915	    -54.23456831	    121.25937846	    -32.12924916	   -140.88523390	      3.33625967	      0.93100742	     23.59362133	     -9.91924848	    -35.41666556	     -5.73972852	    -22.26143174	     11.65093095	     57.88909241	      3.04369744	     12.16028448	     16.08084267	     13.97973081	     20.29205681	     -3.52224129
      2.41000000	     -4.49581431	      7.52539470	     10.68404111	     -0.10336538	      1.02857948	      0.01071725	     17.77161113	    -14.51380905	     44.01146888	    -14.70788749	     23.86306618	    -11.78187703	      1.50406622	    -54.10755462	    121.13515378	    -31.92991177	   -141.13704420	      3.35176763	      1.00558409	     23.70537835	    -10.24047831	    -35.58925524	     -5.35913490	    -22.04391023	     11.68880366	     58.00656904	      3.37160579	     12.68041764	     14.88382008	     14.25522550	     19.84008484	     -3.39554370
      2.42000000	     -4.41398172	      7.33476235	     10.51219607	     -0.10276655	      1.02871211	      0.01063224	     17.81287035	    -14.20878292	     44.30889214	    -14.52272810	     24.17932538	    -12.08192230	      1.36775617	    -54.06002394	    121.04341083	    -31.74959502	   -141.52557849	      3.40796332	      1.13664860	     23.82787674	    -10.52242984	    -35.77188839	     -5.06343611	    -21.93671745	     11.73148572	     58.10060008	      3.73921894	     13.36512884	     13.77742672	     14.60683702	     19.14787146	     -3.37630088
      2.43000000	     -4.30236348	      7.10595903	     10.34582648	     -0.10226267	      1.02867183	      0.01057564	     17.91358251	    -13.79813945	     44.70331360	    -14.24388557	     24.49383536	    -12.50135253	      1.16356702	    -54.02249238	    120.88550861	    -31.65757339	   -142.15226900	      3.53272205	      1.29714401	     23.96257109	    -10.75929576	    -35.96875550	     -4.85051139	    -21.92684517	     11.78700379	     58.22586793	      4.13071962	     14.08082049	     12.80314322	     15.06880725	     18.20605263	     -3.53655285
      2.44000000	     -4.26250023	      6.80872867	     10.28786113	     -0.10181176	      1.02848835	      0.01053815	     18.02177076	    -13.50247529	     45.00000000	    -14.02626773	     24.65774597	    -12.81989307	      0.91954295	    -53.99992002	    120.76978234	    -31.64810250	   -142.76350907	      3.67473656	      1.40768295	     24.05011977	    -10.87625672	    -36.09506316	     -4.77051660	    -21.97826690	     11.82872070	     58.33011622	      4.31268356	     14.47266667	     12.22797629	     15.42340325	     17.52395593	     -3.78101078
      2.45000000	     -4.29495357	      6.47212756	     10.21875934	     -0.10125261	      1.02847717	      0.01041580	     18.00616741	    -13.46589784	     44.99336168	    -14.00151961	     24.67958759	    -12.83564369	      0.84579869	    -53.93209290	    120.77203228	    -31.70631469	   -142.81863251	      3.70278321	      1.42170224	     24.08714429	    -10.89988577	    -36.15415568	     -4.75020770	    -21.98152961	     11.86094480	     58.38717896	      4.26616783	     14.48300092	     12.06749243	     15.45853135	     17.47433058	     -3.77851246
      2.46000000	     -4.36715879	      6.15688136	     10.13038642	     -0.10092578	      1.02841308	      0.01041636	     18.00722219	    -13.37947194	     45.00000000	    -13.92655179	     24.67799363	    -12.89505175	      0.70020363	    -53.81819733	    120.76981786	    -31.80397683	   -142.96759630	      3.76491066	      1.47288192	     24.12831630	    -10.93677280	    -36.22612614	     -4.67611951	    -21.89337231	     11.89799687	     58.57213417	      4.19245349	     14.57074832	     11.70478387	     15.52321044	     17.33918279	     -3.77300815
      2.47000000	     -4.37322601	      5.88259738	      9.98754350	     -0.10056347	      1.02849348	      0.01042423	     18.00890987	    -13.21673722	     45.00000000	    -13.78213793	     24.65765431	    -13.00696606	      0.52926829	    -53.68471500	    120.67939593	    -31.96738844	   -143.33357191	      3.89461403	      1.59953243	     24.16944564	    -11.05314290	    -36.29050496	     -4.52665223	    -21.78705136	     11.91088538	     58.74586535	      4.17993881	     14.74495091	     11.16733518	     15.63146154	     17.05358260	     -3.82273739
      2.48000000	     -4.00956514	      5.79334064	     10.01710607	     -0.10002887	      1.02801645	      0.01044658	     17.78933223	    -12.39086498	     44.95336074	    -13.17426008	     25.00606574	    -13.44783273	     -0.10224222	    -53.90324903	    120.43980960	    -31.95294878	   -146.74323688	      4.70256453	      2.63157006	     24.24456568	    -11.30201895	    -36.34972087	     -4.47862929	    -22.14921219	     11.85711932	     58.76628999	      4.62833099	     15.20379561	     10.48086464	     16.26319667	     14.88507437	     -5.23791394
      2.49000000	     -4.06913539	      5.48055194	      9.86526255	     -0.09993707	      1.02792405	      0.01038474	     17.84044965	    -12.38414377	     45.00000000	    -13.15498053	     24.95745222	    -13.48340582	     -0.12163527	    -53.86958191	    120.41474592	    -32.13299360	   -146.91596392	      4.75858727	      2.57945178	     24.27544642	    -11.23632094	    -36.41404729	     -4.50448445	    -22.08717717	     11.91736123	     58.93317432	      4.52925027	     15.17397187	     10.35287426	     16.27868707	     14.85412814	     -5.26539933
